<?xml version="1.0" encoding="UTF-8"?>
<svg version="1.1" xmlns="http://www.w3.org/2000/svg" width="500" height="500">
<path d="M0 0 C165 0 330 0 500 0 C500 165 500 330 500 500 C335 500 170 500 0 500 C0 335 0 170 0 0 Z " fill="#FE9700" transform="translate(0,0)"/>
<path d="M0 0 C4.93791617 3.71059832 9.70385684 7.60865988 14.39355469 11.62695312 C15.69850778 12.74231121 17.02234985 13.83554174 18.3515625 14.921875 C42.0090767 34.58779216 56.47868345 61.48445307 65.3125 90.5 C65.56733154 91.33700439 65.82216309 92.17400879 66.0847168 93.03637695 C67.15709782 96.67910868 68.09406085 100.19416141 68.546875 103.96875 C69.10395134 107.69539861 70.35829296 108.43834469 73 111 C75.88468496 117.88189348 75.06904032 124.9886412 74.75 132.3125 C74.69845262 133.65705628 74.64710274 135.00162015 74.59594727 136.34619141 C74.19094813 146.29269945 73.3758429 156.14201882 72 166 C73.10988281 166.42732422 73.10988281 166.42732422 74.2421875 166.86328125 C78.56699987 168.64588805 82.03570947 170.27845622 85 174 C86.12917945 177.90118764 86.73556468 181.50835333 87.234375 185.5390625 C88.5996683 191.7107455 93.30515615 194.00438587 98.24707031 197.41430664 C116.08051134 209.77504179 116.08051134 209.77504179 120 217 C120.69331142 221.57935104 120.03657055 224.85762705 118 229 C115.32491355 232.19367327 112.38936776 234.59967983 109 237 C107.66612057 237.99927145 106.33260278 238.99902668 105 240 C105.165 241.0725 105.33 242.145 105.5 243.25 C105.6813261 244.83172155 105.84617588 246.41536744 106 248 C106.09152344 248.92941406 106.18304688 249.85882813 106.27734375 250.81640625 C106.71093611 258.92775609 104.66565619 264.38180642 100 271 C99 272 98 273 97 274 C96.3246101 275.62093576 95.65058277 277.2424563 94.984375 278.8671875 C88.31304613 293.32173338 76.30213644 305.09136154 65 316 C59.09627107 312.04420194 54.9471613 307.89607219 51 302 C50.401875 301.195625 49.80375 300.39125 49.1875 299.5625 C47.69122692 296.33370019 47.50140203 293.41960082 47.30859375 289.890625 C47.20675781 289.26671875 47.10492188 288.6428125 47 288 C46.34 287.67 45.68 287.34 45 287 C44.731875 287.70125 44.46375 288.4025 44.1875 289.125 C30.90249848 321.28868789 3.05088069 343.02936587 -27.76538086 357.10620117 C-30 358 -30 358 -32 358 C-27.8764192 363.27074237 -23.22643925 367.64695762 -18.125 371.9375 C-2.65617255 385.00862862 8.93984821 399.69924105 13 420 C-42.11 420 -97.22 420 -154 420 C-152.87236309 412.10654166 -152.87236309 412.10654166 -151.6171875 409.16796875 C-151.34092529 408.51973145 -151.06466309 407.87149414 -150.7800293 407.20361328 C-150.48136963 406.5382959 -150.18270996 405.87297852 -149.875 405.1875 C-149.56151611 404.48608887 -149.24803223 403.78467773 -148.92504883 403.06201172 C-142.54147136 389.18966899 -132.44050276 379.65895312 -120.62890625 370.25 C-116.66677292 366.85893195 -113.31317873 363.01568654 -110 359 C-110.93457031 358.55011719 -111.86914062 358.10023438 -112.83203125 357.63671875 C-132.70856851 347.95762005 -153.70579555 337.41371175 -167 319 C-167 318.34 -167 317.68 -167 317 C-167.66 317 -168.32 317 -169 317 C-170.48046875 314.796875 -170.48046875 314.796875 -172.1875 311.75 C-172.80109375 310.66460937 -173.4146875 309.57921875 -174.046875 308.4609375 C-174.69140625 307.31882812 -175.3359375 306.17671875 -176 305 C-177.90000624 301.79650111 -179.80536154 298.59629562 -181.71484375 295.3984375 C-183 293 -183 293 -183 291 C-187.67903228 293.265895 -189.7320399 296.31811561 -192.25 300.6875 C-196.00818336 306.90267907 -200.17806714 311.56817404 -206 316 C-218.97420139 305.56422931 -230.92055872 291.50156984 -237.88671875 276.27734375 C-239.11715485 273.76034639 -240.55829999 271.5089606 -242.125 269.1875 C-242.62515625 268.44628906 -243.1253125 267.70507812 -243.640625 266.94140625 C-244.67186148 265.46863462 -245.7609311 264.03615394 -246.875 262.625 C-248.74096838 258.27107377 -248.51579843 253.66228193 -248 249 C-247.64292969 248.1440625 -247.28585938 247.288125 -246.91796875 246.40625 C-245.88150117 244.12083416 -245.88150117 244.12083416 -246.00390625 242.01953125 C-247.83786104 238.30127782 -251.43650666 235.9076057 -254.60742188 233.33007812 C-258.5569061 229.93726482 -260.05068138 227.28394328 -261 222 C-261.15726562 221.15824219 -261.31453125 220.31648437 -261.4765625 219.44921875 C-260.72626893 215.59320178 -258.11779227 213.42665668 -255.375 210.8125 C-254.50887085 209.96582764 -254.50887085 209.96582764 -253.62524414 209.10205078 C-247.04150863 202.82887718 -239.60574888 197.18164125 -231.6875 192.6875 C-228.74844501 189.74844501 -228.80991257 185.58895711 -228.31054688 181.625 C-227.50906843 176.49962193 -226.01137339 174.22853471 -222 171 C-219.38353795 169.2423535 -216.7226518 167.58765055 -214 166 C-214.06058594 165.2972998 -214.12117188 164.59459961 -214.18359375 163.87060547 C-215.22642067 151.53516626 -216.20292753 139.19526516 -216.375 126.8125 C-216.41367188 125.49838135 -216.41367188 125.49838135 -216.453125 124.15771484 C-216.47141522 118.27397833 -215.25977798 113.9348371 -212 109 C-211.34 108.34 -210.68 107.68 -210 107 C-209.5683641 105.04883053 -209.5683641 105.04883053 -209.3125 102.6875 C-205.07581134 77.46596284 -192.85508029 52.11612765 -176 33 C-175.28070313 32.17113281 -174.56140625 31.34226563 -173.8203125 30.48828125 C-157.4310946 11.91189014 -137.5006918 -6.04585941 -114 -15 C-113.38189453 -15.24057129 -112.76378906 -15.48114258 -112.12695312 -15.72900391 C-103.2867289 -19.13994838 -94.64765182 -21.74703435 -85.3046875 -23.40625 C-82.52580761 -23.90552866 -79.85233228 -24.53277767 -77.125 -25.25 C-53.30453908 -30.54675703 -18.66284124 -13.48786854 0 0 Z " fill="#2B2721" transform="translate(321,80)"/>
<path d="M0 0 C1.1864209 0.08008301 2.3728418 0.16016602 3.59521484 0.24267578 C34.9021796 2.4510898 34.9021796 2.4510898 42 6 C42 7.65 42 9.3 42 11 C41.09636719 10.65066406 40.19273437 10.30132812 39.26171875 9.94140625 C38.08222656 9.48636719 36.90273438 9.03132812 35.6875 8.5625 C34.51574219 8.11003906 33.34398437 7.65757812 32.13671875 7.19140625 C12.16387738 -0.39479128 -13.78390289 6.93110193 -34 11 C-33.67 14.3 -33.34 17.6 -33 21 C-31.76435303 20.76289307 -30.52870605 20.52578613 -29.25561523 20.28149414 C-24.65078787 19.3983296 -20.04554892 18.51732768 -15.44018555 17.63696289 C-13.45081556 17.25636385 -11.46155616 16.87518628 -9.47241211 16.4934082 C-6.60559836 15.94328407 -3.73838725 15.39527363 -0.87109375 14.84765625 C0.01147598 14.6778273 0.89404572 14.50799835 1.80335999 14.33302307 C14.50309359 11.9136457 28.87270214 9.25549049 41 15 C42.06080322 18.18240965 41.97563951 20.11739044 41.8125 23.4375 C41.73298163 29.37246217 43.03854905 34.08116102 45.125 39.6015625 C46 42 46 42 46 44 C46.66 44 47.32 44 48 44 C48.20302734 44.80050781 48.20302734 44.80050781 48.41015625 45.6171875 C52.22040038 58.80473903 62.18489853 67.48603736 71.82885742 76.61645508 C85.13732563 89.26717363 85.13732563 89.26717363 86.33984375 98.65234375 C84.46676236 109.29071861 77.49603692 118.30797317 71.57592773 127.11962891 C68.98730628 131.06415033 67.34220389 134.23851714 66.6875 139 C66.54699219 139.94875 66.40648437 140.8975 66.26171875 141.875 C66.17535156 142.57625 66.08898437 143.2775 66 144 C65.01 144.33 64.02 144.66 63 145 C61.92745649 147.26225382 61.92745649 147.26225382 61 150 C46.27915802 180.77994232 19.43143418 203.42811313 -12 216 C-12.66 216 -13.32 216 -14 216 C-9.8764192 221.27074237 -5.22643925 225.64695762 -0.125 229.9375 C15.34382745 243.00862862 26.93984821 257.69924105 31 278 C-24.11 278 -79.22 278 -136 278 C-134.87236309 270.10654166 -134.87236309 270.10654166 -133.6171875 267.16796875 C-133.34092529 266.51973145 -133.06466309 265.87149414 -132.7800293 265.20361328 C-132.48136963 264.5382959 -132.18270996 263.87297852 -131.875 263.1875 C-131.40477417 262.1353833 -131.40477417 262.1353833 -130.92504883 261.06201172 C-124.54147136 247.18966899 -114.44050276 237.65895312 -102.62890625 228.25 C-98.66677292 224.85893195 -95.31317873 221.01568654 -92 217 C-92.93457031 216.55011719 -93.86914062 216.10023438 -94.83203125 215.63671875 C-114.70856851 205.95762005 -135.70579555 195.41371175 -149 177 C-149 176.34 -149 175.68 -149 175 C-149.66 175 -150.32 175 -151 175 C-152.48046875 172.796875 -152.48046875 172.796875 -154.1875 169.75 C-155.10789062 168.12191406 -155.10789062 168.12191406 -156.046875 166.4609375 C-156.69140625 165.31882812 -157.3359375 164.17671875 -158 163 C-159.90000624 159.79650111 -161.80536154 156.59629562 -163.71484375 153.3984375 C-165 151 -165 151 -165 149 C-167.62901288 150.52206009 -169.84365964 151.84365964 -172 154 C-171.97679687 153.33355469 -171.95359375 152.66710937 -171.9296875 151.98046875 C-171.87095058 148.98069049 -171.91345211 145.99907268 -172 143 C-172.01933594 142.14792969 -172.03867188 141.29585937 -172.05859375 140.41796875 C-172.89467027 132.04434081 -177.53239246 125.86975764 -182.17578125 119.11328125 C-182.87719238 118.09161865 -182.87719238 118.09161865 -183.59277344 117.04931641 C-184.53404103 115.6785669 -185.48004664 114.31105935 -186.43066406 112.94677734 C-189.31240976 108.63039184 -190.75198108 105.29446216 -191.125 100 C-191.23070312 98.865625 -191.33640625 97.73125 -191.4453125 96.5625 C-190.08747275 85.69978197 -179.38229614 78.20867395 -171.85913086 71.0715332 C-164.72147862 64.27430953 -159.130027 58.10694404 -155 49 C-154.63624268 48.27594971 -154.27248535 47.55189941 -153.89770508 46.8059082 C-148.70671202 36.39020623 -147.01853542 27.57505051 -148 16 C-132.42195582 9.23971668 -117.23887537 12.22737658 -101 15.375 C-99.27499257 15.69667213 -97.54973201 16.01698986 -95.82421875 16.3359375 C-88.18298027 17.7604372 -80.58239217 19.28721186 -73 21 C-72.67 17.7 -72.34 14.4 -72 11 C-109.05591731 2.41155069 -109.05591731 2.41155069 -145 10 C-145.99 10.33 -146.98 10.66 -148 11 C-148 9.35 -148 7.7 -148 6 C-139.16947677 3.75661901 -130.50518424 2.28053153 -121.4375 1.4375 C-120.15665527 1.31528076 -118.87581055 1.19306152 -117.55615234 1.06713867 C-78.29431728 -2.5751878 -39.32242516 -2.65870979 0 0 Z " fill="#A74225" transform="translate(303,222)"/>
<path d="M0 0 C2.8125 2.4375 2.8125 2.4375 5 5 C5.44085938 5.50015625 5.88171875 6.0003125 6.3359375 6.515625 C10.24467454 11.35071013 11.08070474 15.89922239 12 22 C17.94 22 23.88 22 30 22 C30.226875 20.68 30.45375 19.36 30.6875 18 C32.98279039 7.95417425 39.53859057 1.44728808 47.8671875 -4.28515625 C61.55309565 -12.00917737 79.88841692 -11.62669124 94.734375 -8.05078125 C99.9236545 -6.38102505 104.43204133 -3.94554576 109 -1 C110.3921875 -0.1028125 110.3921875 -0.1028125 111.8125 0.8125 C118.45071815 7.45071815 121.97263408 14.71751123 122.3125 24.125 C122.00461384 37.34599394 117.87533308 49.04583421 108.875 58.8125 C98.44862177 68.64006597 86.00440942 71.5549796 72.15625 71.2421875 C60.52819533 70.71600761 49.52390397 65.15867372 41.5625 56.6875 C34.95200116 48.56838109 32.23675432 40.12425641 30 30 C24.06 29.67 18.12 29.34 12 29 C11.5359375 31.59875 11.5359375 31.59875 11.0625 34.25 C10.4760423 37.53416312 9.85257607 40.77403651 9 44 C10.65 44.66 12.3 45.32 14 46 C13.38444048 49.97714814 12.12633433 53.0924468 10.3125 56.67578125 C9.77882813 57.75150391 9.24515625 58.82722656 8.6953125 59.93554688 C7.56980055 62.17749407 6.43962652 64.41710717 5.3046875 66.65429688 C2.41338488 72.50324843 0.04596579 77.4115697 0 84 C1.85764877 86.78647316 3.06662954 87.76136875 6.30517578 88.58935547 C9.07711027 89.01175027 11.68913164 89.12943008 14.4921875 89.1328125 C15.52730469 89.13410156 16.56242187 89.13539063 17.62890625 89.13671875 C19.23572266 89.13091797 19.23572266 89.13091797 20.875 89.125 C21.93847656 89.12886719 23.00195312 89.13273437 24.09765625 89.13671875 C29.50543689 89.13000101 34.67408923 88.9559327 40 88 C40.66 89.98 41.32 91.96 42 94 C40.35 94.66 38.7 95.32 37 96 C38.05316406 96.268125 39.10632813 96.53625 40.19140625 96.8125 C48.0147271 98.90151641 55.3340035 101.31017363 62.5 105.125 C63.1401001 105.46144531 63.7802002 105.79789062 64.43969727 106.14453125 C68.86820326 108.60460978 68.86820326 108.60460978 70 112 C69.00390625 113.82421875 69.00390625 113.82421875 67.5625 115.6875 C66.85287109 116.62142578 66.85287109 116.62142578 66.12890625 117.57421875 C65.75636719 118.04472656 65.38382813 118.51523437 65 119 C61.48318151 118.31318604 58.71002495 116.87443671 55.5625 115.1875 C46.48879746 110.57319029 36.93772083 108.02123135 27 106 C27 102.7 27 99.4 27 96 C23.04 96 19.08 96 15 96 C15 99.3 15 102.6 15 106 C14.21238281 106.15855469 13.42476563 106.31710937 12.61328125 106.48046875 C1.64765241 108.82931942 -8.67270184 112.07243134 -18.09765625 118.27734375 C-20 119 -20 119 -22.10546875 118.28515625 C-24.65673398 116.55450416 -26.24035979 114.51377173 -28 112 C-28 111.34 -28 110.68 -28 110 C-18.47526585 102.8793895 -6.46518766 98.76822274 5 96 C3.9275 95.608125 2.855 95.21625 1.75 94.8125 C-2.58198545 92.97096773 -4.90058741 90.19882519 -7 86 C-8.34575021 74.11253985 -0.97412058 62.44394389 4 52 C3.5359375 52.6290625 3.071875 53.258125 2.59375 53.90625 C-4.34850305 62.50635453 -14.73790677 69.64290895 -26 71 C-40.70997156 71.82160958 -53.05366122 69.77414985 -65.0390625 60.40625 C-74.91933246 51.17886132 -79.77878283 38.50450711 -80.25 25.1875 C-80.14556064 16.50597827 -77.08621786 9.3818166 -71.1640625 3.03125 C-53.14817785 -14.39928099 -19.78651407 -15.01585258 0 0 Z " fill="#21203B" transform="translate(229,263)"/>
<path d="M0 0 C5.23774835 0.98825441 9.0367356 2.50080738 13.625 5.25 C17.61851535 7.60013706 17.61851535 7.60013706 22.125 7.6875 C23.07375 7.130625 24.0225 6.57375 25 6 C26.49670594 5.14007441 27.99699731 4.28637195 29.5 3.4375 C30.2115625 3.00308594 30.923125 2.56867188 31.65625 2.12109375 C34.41950512 0.79933672 36.97479661 0.38684354 40 0 C44.74622753 7.07146868 48.70277415 14.1443974 52 22 C52.969375 21.649375 53.93875 21.29875 54.9375 20.9375 C56.88671875 20.66015625 56.88671875 20.66015625 59 21 C61.46906469 22.92244249 63.4446965 25.08886866 65.55078125 27.40234375 C68.02649643 30.02810227 70.60579276 32.20488456 73.4375 34.4375 C88.89394189 46.91074052 100.05364186 62.2682093 104 82 C48.89 82 -6.22 82 -63 82 C-61.87236309 74.10654166 -61.87236309 74.10654166 -60.6171875 71.16796875 C-60.20279419 70.19561279 -60.20279419 70.19561279 -59.7800293 69.20361328 C-59.48136963 68.5382959 -59.18270996 67.87297852 -58.875 67.1875 C-58.56151611 66.48608887 -58.24803223 65.78467773 -57.92504883 65.06201172 C-51.55130717 51.21104349 -41.46069865 41.58082707 -29.59765625 32.25390625 C-26.97581117 29.97901209 -24.95976235 27.59374509 -22.8125 24.875 C-19.65029513 21.09737638 -19.65029513 21.09737638 -16.73046875 20.66015625 C-14.5 20.9375 -14.5 20.9375 -11 22 C-10.73058594 21.13632812 -10.46117187 20.27265625 -10.18359375 19.3828125 C-9.02050827 16.0586144 -7.64294525 13.01980455 -6.0625 9.875 C-5.55847656 8.86179687 -5.05445313 7.84859375 -4.53515625 6.8046875 C-3.18476936 4.33756846 -1.75509225 2.189936 0 0 Z " fill="#191617" transform="translate(230,418)"/>
<path d="M0 0 C4.35266585 1.27516724 8.68012944 2.61782389 13 4 C14.06605469 4.33902344 15.13210938 4.67804688 16.23046875 5.02734375 C24.83818678 8.03202545 31.79581802 12.53336652 39.18212891 17.7421875 C40.93452282 18.95469535 42.71096467 20.11086158 44.51171875 21.25 C45.58035156 21.930625 46.64898437 22.61125 47.75 23.3125 C48.69359375 23.90675781 49.6371875 24.50101563 50.609375 25.11328125 C54.18669366 27.93655725 55.70426131 30.50955534 56.58984375 34.97265625 C56.8218716 37.03483633 57.05103237 39.097341 57.27734375 41.16015625 C58.71340517 46.80348949 63.68999506 49.26992471 68.24707031 52.41430664 C86.08051134 64.77504179 86.08051134 64.77504179 90 72 C90.69331142 76.57935104 90.03657055 79.85762705 88 84 C85.32491355 87.19367327 82.38936776 89.59967983 79 92 C77.66612057 92.99927145 76.33260278 93.99902668 75 95 C75.165 96.0725 75.33 97.145 75.5 98.25 C75.6813261 99.83172155 75.84617588 101.41536744 76 103 C76.09152344 103.92941406 76.18304688 104.85882813 76.27734375 105.81640625 C76.71093611 113.92775609 74.66565619 119.38180642 70 126 C69 127 68 128 67 129 C66.3246101 130.62093576 65.65058277 132.2424563 64.984375 133.8671875 C58.31304613 148.32173338 46.30213644 160.09136154 35 171 C29.09151336 167.04101403 24.96019698 162.89079301 21 157 C20.1028125 155.8553125 20.1028125 155.8553125 19.1875 154.6875 C15.86576533 147.16988995 16.18836246 137.61446757 19 130 C22.63781488 123.00905473 27.0490008 116.43108742 31.41308594 109.87817383 C33.93694768 106.0046067 35.77614169 102.68054262 36.625 98.0625 C36.82351563 97.12535156 37.02203125 96.18820312 37.2265625 95.22265625 C36.48084141 84.61541661 26.7570714 77.38104886 19.5625 70.5 C-0.81923682 50.94498406 -0.81923682 50.94498406 -1.24291992 36.54345703 C-1.24926288 34.9482494 -1.24469822 33.35296928 -1.23046875 31.7578125 C-1.23001053 30.90822968 -1.22955231 30.05864685 -1.2290802 29.18331909 C-1.22607972 27.40344836 -1.2182603 25.62357972 -1.20581055 23.84375 C-1.18741167 21.11188545 -1.18530217 18.38035791 -1.18554688 15.6484375 C-1.18063609 13.91405955 -1.1748097 12.17968391 -1.16796875 10.4453125 C-1.16685593 9.62765411 -1.1657431 8.80999573 -1.16459656 7.96755981 C-1.11612188 2.23224375 -1.11612188 2.23224375 0 0 Z " fill="#0A0807" transform="translate(351,225)"/>
<path d="M0 0 C0.07460523 5.67420636 0.12881608 11.34812208 0.16479492 17.02270508 C0.17980652 18.94983906 0.20022216 20.87693932 0.22631836 22.80395508 C0.26303943 25.58683639 0.27980292 28.36926288 0.29296875 31.15234375 C0.30845261 32.00271713 0.32393646 32.85309052 0.33988953 33.72923279 C0.34328093 46.00469316 -4.8758105 54.9570878 -13.33029175 63.52731323 C-16.09182993 66.27260983 -18.88438413 68.98473719 -21.6875 71.6875 C-23.95027427 73.87001824 -26.20255556 76.062633 -28.44921875 78.26171875 C-28.96175705 78.74936203 -29.47429535 79.23700531 -30.00236511 79.73942566 C-34.12605657 83.77814685 -36.72612898 87.38557747 -37.33569336 93.20458984 C-36.81764224 102.75852865 -33.95318395 108.8301606 -28.5625 116.625 C-27.18807397 118.70003874 -25.81434568 120.77553986 -24.44140625 122.8515625 C-23.82982666 123.74697754 -23.21824707 124.64239258 -22.58813477 125.56494141 C-17.68662516 133.0803383 -18.08638244 140.90343633 -17.9375 149.6875 C-20.77928697 158.54718878 -27.81011767 165.39724595 -35 171 C-47.97420139 160.56422931 -59.92055872 146.50156984 -66.88671875 131.27734375 C-68.11715485 128.76034639 -69.55829999 126.5089606 -71.125 124.1875 C-71.62515625 123.44628906 -72.1253125 122.70507812 -72.640625 121.94140625 C-73.67186148 120.46863462 -74.7609311 119.03615394 -75.875 117.625 C-77.74096838 113.27107377 -77.51579843 108.66228193 -77 104 C-76.64292969 103.1440625 -76.28585938 102.288125 -75.91796875 101.40625 C-74.88150117 99.12083416 -74.88150117 99.12083416 -75.00390625 97.01953125 C-76.83786104 93.30127782 -80.43650666 90.9076057 -83.60742188 88.33007812 C-87.5569061 84.93726482 -89.05068138 82.28394328 -90 77 C-90.15726563 76.15824219 -90.31453125 75.31648438 -90.4765625 74.44921875 C-89.72626893 70.59320178 -87.11779227 68.42665668 -84.375 65.8125 C-83.79758057 65.24805176 -83.22016113 64.68360352 -82.62524414 64.10205078 C-76.04150863 57.82887718 -68.60574888 52.18164125 -60.6875 47.6875 C-57.74844501 44.74844501 -57.80991257 40.58895711 -57.31054688 36.625 C-56.5174744 31.55337729 -54.93357732 29.23363194 -51 26 C-48.90234375 24.55859375 -48.90234375 24.55859375 -46.9375 23.4375 C-44.69531459 22.15434835 -43.00256188 21.0026171 -41.1875 19.1484375 C-31.64961455 9.78087143 -13.61380791 0 0 0 Z " fill="#0B0908" transform="translate(150,225)"/>
<path d="M0 0 C6.93 0.495 6.93 0.495 14 1 C14.96886637 13.64411317 15.31034818 26.26095331 15.5625 38.9375 C15.60580942 40.98893887 15.64942709 43.04037125 15.69335938 45.09179688 C15.79912041 50.06113046 15.90073195 55.03053265 16 60 C19.96 60.66 23.92 61.32 28 62 C27.96970703 60.91807373 27.93941406 59.83614746 27.90820312 58.72143555 C27.79374202 54.60806144 27.68278643 50.49459826 27.57275391 46.38110352 C27.52516942 44.61935973 27.47670293 42.85763949 27.42724609 41.09594727 C27.0808212 28.72716465 26.93656841 16.3735643 27 4 C31.31096276 2.99485324 34.62835032 3.22853241 39 4 C40.08253731 8.54847608 40.34262731 13.0965549 40.5625 17.75 C40.6049585 18.62873779 40.64741699 19.50747559 40.69116211 20.4128418 C41.28544731 34.59557164 41.08353339 48.8083203 41 63 C42.093125 63.1959375 43.18625 63.391875 44.3125 63.59375 C54.11748214 65.4524074 63.58023601 67.94175489 73.0625 71.0625 C74.11501953 71.4028125 75.16753906 71.743125 76.25195312 72.09375 C77.23228516 72.42503906 78.21261719 72.75632812 79.22265625 73.09765625 C80.09672119 73.39164307 80.97078613 73.68562988 81.87133789 73.98852539 C84 75 84 75 86 78 C77 75 68 72 59 69 C56.89330541 71.10669459 57.74107511 75.71256289 57.68359375 78.62890625 C57.6524221 79.92525246 57.6524221 79.92525246 57.62062073 81.24778748 C57.55502886 84.01927445 57.49619582 86.79085921 57.4375 89.5625 C57.39432392 91.43685923 57.35070994 93.31120843 57.30664062 95.18554688 C57.19933773 99.79026336 57.09809785 104.39507858 57 109 C50.47622911 100.53380148 50.59675234 91.36495827 51 81 C31.24884115 72.53521764 6.02170829 80.844918 -13.85693359 85.43823242 C-16.976934 85.99587736 -19.83823817 86.10142623 -23 86 C-23.66 82.7 -24.32 79.4 -25 76 C-9.57784389 70.56333989 8.37011686 68.54000712 24.6875 68.4375 C25.67016846 68.42315918 26.65283691 68.40881836 27.6652832 68.39404297 C36.21567432 68.51284933 43.4521069 71.10519529 51 75 C51.33 73.68 51.66 72.36 52 71 C-9.14328971 59.20628748 -76.69659962 61.03464064 -138 71 C-137.67 72.32 -137.34 73.64 -137 75 C-136.25234375 74.65066406 -135.5046875 74.30132812 -134.734375 73.94140625 C-133.74953125 73.48636719 -132.7646875 73.03132813 -131.75 72.5625 C-130.77546875 72.11003906 -129.8009375 71.65757812 -128.796875 71.19140625 C-109.2067851 62.84646572 -82.00829892 71.08680344 -62 75 C-60.68461673 79.15771494 -61.65566932 81.8879297 -63 86 C-69.01495549 85.39352174 -74.8830495 84.53569966 -80.8125 83.37109375 C-82.48293429 83.05460599 -84.15351222 82.73887559 -85.82421875 82.42382812 C-88.40078807 81.93515164 -90.97616785 81.4421902 -93.54931641 80.93579102 C-115.50302246 76.56755034 -115.50302246 76.56755034 -137 81 C-136.93039063 81.98097656 -136.86078125 82.96195312 -136.7890625 83.97265625 C-136.2785455 94.62969852 -138.38327515 102.43678424 -143 112 C-143.92645446 109.22063662 -144.10056322 107.74256078 -144.02172852 104.89575195 C-144.00163223 104.07512772 -143.98153595 103.25450348 -143.96083069 102.40901184 C-143.93379562 101.52767075 -143.90676056 100.64632965 -143.87890625 99.73828125 C-143.85529526 98.83248825 -143.83168427 97.92669525 -143.80735779 96.99345398 C-143.73076856 94.09964135 -143.64672369 91.20609952 -143.5625 88.3125 C-143.50927458 86.35092472 -143.45653421 84.38933622 -143.40429688 82.42773438 C-143.27515978 77.61831801 -143.13933558 72.80913127 -143 68 C-143.73637695 68.2673999 -144.47275391 68.5347998 -145.23144531 68.81030273 C-148.57022584 70.02141352 -151.91009678 71.2294889 -155.25 72.4375 C-156.40886719 72.85837891 -157.56773437 73.27925781 -158.76171875 73.71289062 C-159.87675781 74.11572266 -160.99179688 74.51855469 -162.140625 74.93359375 C-163.16704102 75.30540771 -164.19345703 75.67722168 -165.25097656 76.06030273 C-167.49429781 76.82713608 -169.69058432 77.47579163 -172 78 C-168.34424503 73.2641356 -163.49726138 72.16692369 -158 70.5 C-157.0203125 70.19739258 -156.040625 69.89478516 -155.03125 69.58300781 C-145.4634821 66.70712912 -135.85219634 64.61875279 -126 63 C-125.17161621 62.86110352 -124.34323242 62.72220703 -123.48974609 62.57910156 C-96.43105349 58.15859633 -69.27969918 57.81738127 -41.9375 57.8125 C-41.27357994 57.81197758 -40.60965988 57.81145515 -39.92562103 57.8109169 C-35.41780373 57.80766777 -30.91013329 57.81666389 -26.40234375 57.83203125 C-25.26048111 57.83323975 -24.11861847 57.83444824 -22.94215393 57.83569336 C-14.92815292 57.88142713 -6.98642862 58.34401476 1 59 C0.96970703 57.85225098 0.93941406 56.70450195 0.90820312 55.52197266 C0.79402316 51.17193424 0.68296946 46.8218202 0.57275391 42.47167969 C0.52507439 40.60609857 0.47660069 38.74053755 0.42724609 36.875 C0.10264931 24.58006891 -0.06804561 12.29924325 0 0 Z " fill="#302A23" transform="translate(293,157)"/>
<path d="M0 0 C0.67804688 0.37253906 1.35609375 0.74507813 2.0546875 1.12890625 C8.4354019 5.05865954 12.70051311 11.97496206 15 19 C16.09120485 29.68530465 14.9051651 39.59694101 8.375 48.3125 C4.43537636 52.84990931 0.31403775 56.20459473 -5 59 C-5.639375 59.33902344 -6.27875 59.67804688 -6.9375 60.02734375 C-15.98857156 63.86344244 -28.84208715 63.45461676 -38.0625 60.4375 C-48.53430312 55.84404035 -55.63437056 48.36524752 -59.8125 37.75 C-62.53845798 29.14171165 -63.83124494 20.06357511 -59.9375 11.625 C-54.88861073 2.835151 -46.75958514 -1.71366619 -37.15307617 -4.54418945 C-25.07858211 -7.10038408 -10.62368006 -6.5002517 0 0 Z " fill="#0E0B0A" transform="translate(218,265)"/>
<path d="M0 0 C6.54472181 3.55777981 13.15916786 8.74830149 15.421875 16.0859375 C17.55385237 26.56203319 15.772503 37.73114684 10.33203125 46.91796875 C4.15689535 55.35402397 -3.81197595 61.15283143 -14.125 63.3125 C-26.51957645 64.67152885 -37.44296745 63.51922201 -47.875 56.25 C-52.86225782 52.11335168 -56.01676333 46.93487825 -59.125 41.3125 C-59.50785156 40.69761719 -59.89070313 40.08273437 -60.28515625 39.44921875 C-62.80627716 33.03501812 -62.0358009 24.36004673 -60.09765625 17.875 C-55.96450331 8.89884513 -49.92173224 2.63193405 -40.75 -1.125 C-39.21599645 -1.66798856 -37.67507727 -2.19225871 -36.125 -2.6875 C-25.53600751 -6.21716416 -10.06211614 -4.49994829 0 0 Z " fill="#0B0808" transform="translate(328.125,263.6875)"/>
<path d="M0 0 C1.89306641 2.24584961 1.89306641 2.24584961 3.4765625 5.21484375 C4.06211914 6.30265137 4.64767578 7.39045898 5.25097656 8.51123047 C8.07560935 14.14551335 10.77811073 19.81975878 13.375 25.5625 C13.90738281 26.72330078 14.43976563 27.88410156 14.98828125 29.08007812 C18.43987234 36.63756955 20.34253643 41.83434421 19.875 50.25 C18.40705712 53.18588576 15.94721917 53.80977688 13 55 C7.40089741 56.35604171 1.85463745 56.18405256 -3.875 56.1875 C-5.47021484 56.20586914 -5.47021484 56.20586914 -7.09765625 56.22460938 C-20.2318977 56.24908312 -20.2318977 56.24908312 -25 52.375 C-26.52899601 48.74363447 -25.96072925 45.70869749 -25 42 C-23.06006518 37.28390088 -20.79167146 32.74000512 -18.5 28.1875 C-17.29861476 25.76602722 -16.10284877 23.34181414 -14.90625 20.91796875 C-14.37322266 19.85344482 -13.84019531 18.7889209 -13.29101562 17.69213867 C-11.92946402 14.99685097 -11.92946402 14.99685097 -11 12 C-11.66 12 -12.32 12 -13 12 C-12.42176162 7.22953336 -10.53971712 4.00197849 -8 0 C-4.99399633 -1.50300184 -3.18147881 -0.91405348 0 0 Z " fill="#AC4628" transform="translate(254,297)"/>
<path d="M0 0 C2.475 0.99 2.475 0.99 5 2 C4.38444048 5.97714814 3.12633433 9.0924468 1.3125 12.67578125 C0.77882812 13.75150391 0.24515625 14.82722656 -0.3046875 15.93554688 C-1.43019945 18.17749407 -2.56037348 20.41710717 -3.6953125 22.65429688 C-6.58661512 28.50324843 -8.95403421 33.4115697 -9 40 C-7.14235123 42.78647316 -5.93337046 43.76136875 -2.69482422 44.58935547 C0.07711027 45.01175027 2.68913164 45.12943008 5.4921875 45.1328125 C7.04486328 45.13474609 7.04486328 45.13474609 8.62890625 45.13671875 C10.23572266 45.13091797 10.23572266 45.13091797 11.875 45.125 C12.93847656 45.12886719 14.00195312 45.13273437 15.09765625 45.13671875 C20.50543689 45.13000101 25.67408923 44.9559327 31 44 C31.99 46.97 31.99 46.97 33 50 C31.35 50.66 29.7 51.32 28 52 C29.05316406 52.268125 30.10632813 52.53625 31.19140625 52.8125 C39.0147271 54.90151641 46.3340035 57.31017363 53.5 61.125 C54.1401001 61.46144531 54.7802002 61.79789062 55.43969727 62.14453125 C59.86820326 64.60460978 59.86820326 64.60460978 61 68 C60.00390625 69.82421875 60.00390625 69.82421875 58.5625 71.6875 C57.85287109 72.62142578 57.85287109 72.62142578 57.12890625 73.57421875 C56.75636719 74.04472656 56.38382812 74.51523437 56 75 C52.48318151 74.31318604 49.71002495 72.87443671 46.5625 71.1875 C37.48879746 66.57319029 27.93772083 64.02123135 18 62 C18 58.7 18 55.4 18 52 C14.04 52 10.08 52 6 52 C6 55.3 6 58.6 6 62 C5.21238281 62.15855469 4.42476562 62.31710937 3.61328125 62.48046875 C-7.35234759 64.82931942 -17.67270184 68.07243134 -27.09765625 74.27734375 C-29 75 -29 75 -31.10546875 74.28515625 C-33.65673398 72.55450416 -35.24035979 70.51377173 -37 68 C-37 67.34 -37 66.68 -37 66 C-27.47526585 58.8793895 -15.46518766 54.76822274 -4 52 C-5.0725 51.608125 -6.145 51.21625 -7.25 50.8125 C-11.58198545 48.97096773 -13.90058741 46.19882519 -16 42 C-17.57600866 28.0785902 -7.46252168 12.83138585 -1 1 C-0.67 0.67 -0.34 0.34 0 0 Z " fill="#070403" transform="translate(238,307)"/>
<path d="M0 0 C10.82134633 5.93065993 26.13672206 14.78477651 32 26 C32.61226512 30.53311672 31.95073713 33.8773666 30 38 C27.33019529 41.19863141 24.38942928 43.59963626 21 46 C19.66612057 46.99927145 18.33260278 47.99902668 17 49 C17.2475 50.60875 17.2475 50.60875 17.5 52.25 C17.6813261 53.83172155 17.84617588 55.41536744 18 57 C18.09152344 57.92941406 18.18304688 58.85882813 18.27734375 59.81640625 C18.70571705 67.83012132 16.82339413 73.55036977 12 80 C10.68561971 81.02478399 9.35448571 82.02884283 8 83 C8.04241821 81.98401733 8.04241821 81.98401733 8.08569336 80.94750977 C8.2460685 74.16534479 7.3448277 68.44798958 5.5625 61.9375 C2.87866291 51.27801329 2.39872811 40.9964349 2.1796875 30.046875 C2.04350768 23.7273419 1.35460313 17.60900448 0.40234375 11.3671875 C-0.05647694 7.5273483 -0.06342342 3.86460047 0 0 Z " fill="#26211B" transform="translate(409,271)"/>
<path d="M0 0 C-0.14196516 2.85440587 -0.28845826 5.70846196 -0.4375 8.5625 C-0.47681641 9.36236328 -0.51613281 10.16222656 -0.55664062 10.98632812 C-0.74253905 14.48979837 -0.98338215 17.89242127 -1.51953125 21.36328125 C-2.05451139 25.41260247 -2.12351616 29.35944281 -2.18969727 33.43896484 C-2.3907833 44.06314612 -3.51005554 53.72080877 -6.26147461 63.98168945 C-7.87570771 70.07042154 -8.66614421 75.67903162 -8 82 C-12.93882654 77.28664162 -17.37962252 72.00036511 -18.453125 65.078125 C-18.51645151 61.17299048 -18.44682734 58.05164007 -16.90625 54.42578125 C-15.8836324 52.12238334 -15.8836324 52.12238334 -16.00390625 50.01953125 C-17.83786104 46.30127782 -21.43650666 43.9076057 -24.60742188 41.33007812 C-28.5569061 37.93726482 -30.05068138 35.28394328 -31 30 C-31.15726563 29.15824219 -31.31453125 28.31648438 -31.4765625 27.44921875 C-30.72627076 23.5932112 -28.11780066 21.42664633 -25.375 18.8125 C-24.79830566 18.24877686 -24.22161133 17.68505371 -23.62744141 17.10424805 C-17.58842009 11.35036212 -10.93285255 6.60632926 -4 2 C-1 0 -1 0 0 0 Z " fill="#2A231C" transform="translate(91,272)"/>
<path d="M0 0 C5.23774835 0.98825441 9.0367356 2.50080738 13.625 5.25 C17.61851535 7.60013706 17.61851535 7.60013706 22.125 7.6875 C23.07375 7.130625 24.0225 6.57375 25 6 C26.49670594 5.14007441 27.99699731 4.28637195 29.5 3.4375 C30.2115625 3.00308594 30.923125 2.56867188 31.65625 2.12109375 C34.41950512 0.79933672 36.97479661 0.38684354 40 0 C41.13619218 1.6799847 42.25842771 3.36941182 43.375 5.0625 C44.00148438 6.00222656 44.62796875 6.94195312 45.2734375 7.91015625 C47.17014872 11.30449691 48.07126266 14.24283529 49 18 C45.54418685 19.50585523 42.08495247 21.00368289 38.625 22.5 C37.64015625 22.92925781 36.6553125 23.35851562 35.640625 23.80078125 C34.22910156 24.40986328 34.22910156 24.40986328 32.7890625 25.03125 C31.91975098 25.40830078 31.05043945 25.78535156 30.15478516 26.17382812 C28 27 28 27 26 27 C26 27.66 26 28.32 26 29 C16.78016923 30.72871827 10.28163794 29.00894575 2 25 C-0.01904429 24.07939949 -2.03990042 23.16276289 -4.0625 22.25 C-5.70850584 21.50037868 -7.35440182 20.75051581 -9 20 C-8.41082252 12.53708519 -4.56688199 5.79539995 0 0 Z " fill="#090706" transform="translate(230,418)"/>
<path d="M0 0 C1 2 1 2 0.22265625 4.7578125 C-0.35162109 6.42457031 -0.35162109 6.42457031 -0.9375 8.125 C-4.07425636 18.14945914 -3.28853872 22.67691151 0.69921875 32.37109375 C2.54954409 37.5331125 3.40118438 42.73016817 4.30859375 48.12109375 C5.10893796 52.61116042 6.22279586 56.96159748 7.44921875 61.3515625 C8.52709631 66.53454821 8.23429066 71.8729465 7 77 C4.4375 79.4375 4.4375 79.4375 2 81 C2.02320313 80.33355469 2.04640625 79.66710937 2.0703125 78.98046875 C2.12904942 75.98069049 2.08654789 72.99907268 2 70 C1.98066406 69.14792969 1.96132812 68.29585938 1.94140625 67.41796875 C1.10532973 59.04434081 -3.53239246 52.86975764 -8.17578125 46.11328125 C-8.87719238 45.09161865 -8.87719238 45.09161865 -9.59277344 44.04931641 C-10.53404103 42.6785669 -11.48004664 41.31105935 -12.43066406 39.94677734 C-16.7215411 33.5197427 -17.55477824 27.73051641 -17 20 C-14.72750608 12.03938494 -5.81545736 5.56503097 0 0 Z " fill="#3F3731" transform="translate(129,295)"/>
<path d="M0 0 C1.47400269 -0.02151123 1.47400269 -0.02151123 2.9777832 -0.04345703 C12.7705845 0.09261243 21.07500375 3.43694678 29.3125 8.5625 C28.9825 9.8825 28.6525 11.2025 28.3125 12.5625 C27.7040625 12.3459375 27.095625 12.129375 26.46875 11.90625 C5.54219482 5.2589913 -17.85582547 12.22026086 -38.54443359 17.00073242 C-41.664434 17.55837736 -44.52573817 17.66392623 -47.6875 17.5625 C-48.3475 14.2625 -49.0075 10.9625 -49.6875 7.5625 C-34.26534389 2.12583989 -16.31738314 0.10250712 0 0 Z " fill="#0B0807" transform="translate(317.6875,225.4375)"/>
<path d="M0 0 C1.31538327 4.15771494 0.34433068 6.8879297 -1 11 C-7.01495549 10.39352174 -12.8830495 9.53569966 -18.8125 8.37109375 C-20.48293429 8.05460599 -22.15351222 7.73887559 -23.82421875 7.42382812 C-26.40078807 6.93515164 -28.97616785 6.4421902 -31.54931641 5.93579102 C-46.80147745 2.9468144 -61.99669455 0.55603603 -77 6 C-76.86328125 3.703125 -76.86328125 3.703125 -76 1 C-73.41796875 -0.765625 -73.41796875 -0.765625 -70.1875 -2.25 C-69.12917969 -2.75015625 -68.07085937 -3.2503125 -66.98046875 -3.765625 C-47.10081941 -11.99887427 -20.25259135 -3.96097495 0 0 Z " fill="#0D0A09" transform="translate(231,232)"/>
<path d="M0 0 C17.09048414 14.24207012 17.09048414 14.24207012 19 23 C19.8412971 34.40424962 10.62730315 45.14064791 4.56713867 54.12402344 C1.96989967 58.06827334 0.41978515 61.07931948 -0.0625 65.875 C-0.34765625 68.6796875 -0.34765625 68.6796875 -1 71 C-3.05859375 72.3203125 -3.05859375 72.3203125 -5 73 C-8.3538513 67.96922305 -6.50222286 62.63739938 -5.41162109 56.91015625 C-4.71116527 53.59617172 -3.95849569 50.2982545 -3.1875 47 C-2.93935547 45.88882813 -2.69121094 44.77765625 -2.43554688 43.6328125 C-1.03179601 37.56060775 0.64555112 31.90278187 3.18823242 26.20654297 C5.95027255 18.69877795 3.53942087 11.647884 0.875 4.46875 C0 2 0 2 0 0 Z " fill="#3F3731" transform="translate(370,295)"/>
<path d="M0 0 C1.69752187 0.25245197 3.38471545 0.57645775 5.0625 0.9375 C5.98160156 1.13214844 6.90070313 1.32679688 7.84765625 1.52734375 C8.91306641 1.76130859 8.91306641 1.76130859 10 2 C10.84025314 6.5523636 11.29653171 11.06716598 11.55859375 15.68359375 C11.62197182 16.78543251 11.62197182 16.78543251 11.68663025 17.90953064 C12.14369775 26.62584974 12.10955892 35.33706605 12.0625 44.0625 C12.05746482 45.71939966 12.05290555 47.37630083 12.04882812 49.03320312 C12.03800562 53.02217416 12.02085757 57.01106935 12 61 C7.71 60.34 3.42 59.68 -1 59 C-0.01 58.505 -0.01 58.505 1 58 C0.85708752 52.81241479 0.71059469 47.62493917 0.5625 42.4375 C0.54076721 41.66922882 0.51903442 40.90095764 0.49664307 40.10940552 C0.18729057 29.24755363 -0.19085966 18.3936083 -0.78295898 7.54272461 C-0.8924673 5.36336631 -0.95233871 3.18158728 -1 1 C-0.67 0.67 -0.34 0.34 0 0 Z " fill="#26221C" transform="translate(344,164)"/>
<path d="M0 0 C24.42 0 48.84 0 74 0 C74 2.64 74 5.28 74 8 C62.75414237 9.20530554 51.52208202 9.15275062 40.22558594 9.13037109 C37.00711354 9.12501185 33.78878066 9.13034263 30.5703125 9.13671875 C20.33586574 9.13968491 10.1873528 9.09185739 0 8 C0 5.36 0 2.72 0 0 Z " fill="#0E0806" transform="translate(213,384)"/>
<path d="M0 0 C0.99 1.485 0.99 1.485 2 3 C2.44859375 3.56847656 2.8971875 4.13695312 3.359375 4.72265625 C4 7 4 7 2.578125 10.43359375 C1.82209012 11.77966345 1.04449228 13.11376499 0.25 14.4375 C-0.37201294 15.50158081 -0.37201294 15.50158081 -1.0065918 16.5871582 C-18.3373265 45.58437286 -44.38563564 66.25860747 -76 78 C-77.65640606 78.3810615 -79.32094569 78.73605775 -81 79 C-81.495 76.03 -81.495 76.03 -82 73 C-73.738041 68.59225513 -73.738041 68.59225513 -69 68 C-69 67.34 -69 66.68 -69 66 C-64.13053697 63.4499391 -59.20324851 61.07052021 -54.1640625 58.875 C-52.86227051 58.30446899 -52.86227051 58.30446899 -51.53417969 57.72241211 C-49.79645336 56.96443031 -48.0550264 56.21486178 -46.30957031 55.47485352 C-37.3119086 51.53815728 -30.86644593 46.40053714 -24.6875 38.8125 C-23.67156358 37.58902046 -22.65466874 36.36633599 -21.63671875 35.14453125 C-21.20061279 34.61190674 -20.76450684 34.07928223 -20.31518555 33.53051758 C-18.93668794 31.92632202 -17.57901409 30.40952286 -16 29 C-15.34 29 -14.68 29 -14 29 C-13.62875 27.329375 -13.62875 27.329375 -13.25 25.625 C-12 22 -12 22 -10 20.9375 C-9.34 20.628125 -8.68 20.31875 -8 20 C-7.30899447 18.00827818 -6.64097297 16.00838196 -6 14 C-5.01 13.67 -4.02 13.34 -3 13 C-3.226875 12.443125 -3.45375 11.88625 -3.6875 11.3125 C-4.12622926 8.06590348 -2.75020337 6.69262057 -1 4 C-0.30420546 1.80869466 -0.30420546 1.80869466 0 0 Z " fill="#B75D3E" transform="translate(362,362)"/>
<path d="M0 0 C-0.68964844 0.20753906 -1.37929687 0.41507812 -2.08984375 0.62890625 C-11.68374344 3.77423139 -18.53103299 7.6943405 -23.5625 16.6875 C-26.69528776 23.66864265 -27.47234865 30.24153987 -25.19140625 37.61328125 C-23.57132604 41.46491162 -21.6138184 44.732727 -19 48 C-19 48.66 -19 49.32 -19 50 C-18.41476563 50.27972656 -17.82953125 50.55945313 -17.2265625 50.84765625 C-15.14955333 51.92259959 -13.30357656 53.12032324 -11.375 54.4375 C-1.22211433 60.76900435 9.65585702 61.33664679 21.1875 58.875 C30.32198362 56.31973269 36.23822807 51.32972954 42 44 C42.99 43.01 42.99 43.01 44 42 C43.08548035 49.12563228 38.12858945 54.35145867 32.78515625 58.875 C30.5835881 60.42267532 28.38089534 61.74754985 26 63 C25.360625 63.33902344 24.72125 63.67804688 24.0625 64.02734375 C15.01142844 67.86344244 2.15791285 67.45461676 -7.0625 64.4375 C-17.53430312 59.84404035 -24.63437056 52.36524752 -28.8125 41.75 C-31.53845798 33.14171165 -32.83124494 24.06357511 -28.9375 15.625 C-23.74417866 6.5837024 -15.59113342 2.54936751 -5.91796875 -0.69921875 C-3.67887871 -1.05035914 -2.14141959 -0.68831344 0 0 Z " fill="#AA4225" transform="translate(187,261)"/>
<path d="M0 0 C9.5643855 0.79703212 16.34969284 5.19645996 23 12 C27.84216276 18.71654835 27.61310276 25.96835385 27 34 C24.85871898 45.31267143 19.7831348 54.17106389 10.1953125 60.71484375 C-0.42259638 66.93066585 -12.33666599 67.74090779 -24.28515625 65.33984375 C-35.72459023 61.6232344 -42.30230327 54.30636001 -48 44 C-48.41378906 43.31292969 -48.82757813 42.62585938 -49.25390625 41.91796875 C-50.17451367 39.55138109 -49.84003548 38.35209934 -49 36 C-48.6596875 36.78503906 -48.319375 37.57007813 -47.96875 38.37890625 C-43.70273416 47.62572251 -39.36054089 53.3585998 -29.875 57.375 C-18.06703035 61.56146197 -6.44570623 61.12211163 5 56 C12.56916796 51.91723667 18.68923325 46.9066199 21.48828125 38.4609375 C23.23616167 30.05510038 23.0604542 21.76555989 18.6796875 14.25390625 C13.66568969 7.52582082 8.02800071 3.33541839 0 1 C0 0.67 0 0.34 0 0 Z " fill="#A03E22" transform="translate(317,261)"/>
<path d="M0 0 C2.62875481 2.46357273 4.99852608 4.99778912 7 8 C7 8.66 7 9.32 7 10 C5.99259766 9.83846436 4.98519531 9.67692871 3.94726562 9.51049805 C-1.82282396 8.76425502 -7.56886101 8.81402793 -13.37597656 8.81469727 C-15.4670115 8.81253413 -17.55749719 8.79440366 -19.6484375 8.77539062 C-28.93115457 8.73802654 -37.8284355 9.53689341 -47 11 C-45.95303202 4.83009631 -43.00758662 2.55513316 -38 -1 C-26.08634536 -7.78161879 -11.40015384 -8.04485899 0 0 Z " fill="#A84123" transform="translate(324,273)"/>
<path d="M0 0 C1.87192223 2.15921965 2.62725869 4.22191291 3.62890625 6.87890625 C2.74404541 6.73670654 1.85918457 6.59450684 0.94750977 6.44799805 C-8.17924818 5.09225672 -17.05088274 4.59228966 -26.2722168 4.6730957 C-28.46349467 4.69165956 -30.65435376 4.69360229 -32.84570312 4.69335938 C-38.78641125 4.71394622 -44.51420078 4.75247264 -50.37109375 5.87890625 C-50.29204797 3.19134972 -49.82679824 1.41078821 -48.0625 -0.6484375 C-33.54880658 -13.82137402 -14.2832157 -12.4364969 0 0 Z " fill="#AF4324" transform="translate(220.37109375,277.12109375)"/>
<path d="M0 0 C0 3.3 0 6.6 0 10 C-0.78761719 10.15855469 -1.57523438 10.31710937 -2.38671875 10.48046875 C-13.35234759 12.82931942 -23.67270184 16.07243134 -33.09765625 22.27734375 C-35 23 -35 23 -37.10546875 22.28515625 C-39.65673398 20.55450416 -41.24035979 18.51377173 -43 16 C-43 15.34 -43 14.68 -43 14 C-34.86426213 7.91779134 -25.43713497 4.69456024 -15.87841797 1.61621094 C-14.16083401 1.05276125 -12.46184856 0.4334104 -10.765625 -0.19140625 C-6.79244488 -1.35305637 -4.04133996 -0.69678275 0 0 Z " fill="#0D0807" transform="translate(244,359)"/>
<path d="M0 0 C0 0.33 0 0.66 0 1 C-1.98 1 -3.96 1 -6 1 C-6 1.66 -6 2.32 -6 3 C-9.63 3.66 -13.26 4.32 -17 5 C-17.99 3.515 -17.99 3.515 -19 2 C-22.3346317 2.3211633 -25.66766995 2.65577078 -29 3 C-29.70253906 3.0721875 -30.40507812 3.144375 -31.12890625 3.21875 C-38.8140469 4.08818005 -45.3494344 5.45223931 -52.1640625 9.12890625 C-54 10 -54 10 -57.0625 10.5 C-59.86724557 10.9774035 -61.23598167 11.57977679 -63.625 13 C-66.36012722 14.62081613 -68.02727705 15.31398701 -71 16 C-71.33 16.66 -71.66 17.32 -72 18 C-70.02 17.67 -68.04 17.34 -66 17 C-68.08501541 22.03419299 -71.66042205 23.39901595 -76.3125 25.8125 C-77.07240234 26.23208984 -77.83230469 26.65167969 -78.61523438 27.08398438 C-84.2552049 30.05832157 -84.2552049 30.05832157 -88.04296875 29.76171875 C-89.01169922 29.38466797 -89.01169922 29.38466797 -90 29 C-89.814375 29.928125 -89.62875 30.85625 -89.4375 31.8125 C-89 35 -89 35 -90 38 C-92.21701147 39.58965571 -94.57862473 40.72327486 -97 42 C-97.66 41.34 -98.32 40.68 -99 40 C-99 39.01 -99 38.02 -99 37 C-105.7116188 42.63468283 -111.86092974 48.75936424 -118 55 C-118 51.30058452 -117.31100226 50.92634517 -114.7734375 48.375 C-114.07863281 47.67391113 -113.38382813 46.97282227 -112.66796875 46.25048828 C-111.91128906 45.50782715 -111.15460938 44.76516602 -110.375 44 C-109.60027344 43.2354248 -108.82554687 42.47084961 -108.02734375 41.68310547 C-94.01978942 28.04644081 -77.40962011 15.0143606 -59 8 C-58.38189453 7.75942871 -57.76378906 7.51885742 -57.12695312 7.27099609 C-48.2867289 3.86005162 -39.64765182 1.25296565 -30.3046875 -0.40625 C-27.52580761 -0.90552866 -24.85233228 -1.53277767 -22.125 -2.25 C-14.69448624 -3.91977837 -7.24955992 -1.76525927 0 0 Z " fill="#524533" transform="translate(266,57)"/>
<path d="M0 0 C2.97 0.33 5.94 0.66 9 1 C8.72089235 7.55902985 6.39112419 12.12097312 2 17 C-7.02996213 24.08527913 -16.6748548 26.21020681 -28 25 C-31.27604539 24.06181363 -34.06906476 22.72474266 -37 21 C-37.6496875 20.62617188 -38.299375 20.25234375 -38.96875 19.8671875 C-43.93806597 16.68766754 -47.10199539 12.90403698 -48.4609375 6.99609375 C-48.70859397 5.33947277 -48.86371616 3.66947702 -49 2 C-44.545 1.505 -44.545 1.505 -40 1 C-39.84144531 1.65226562 -39.68289063 2.30453125 -39.51953125 2.9765625 C-37.60121957 10.1622825 -35.5625235 14.39327549 -29.4375 18.875 C-23.61561336 20.78034472 -17.47288884 21.23176353 -11.62109375 19.15625 C-6.54641568 16.30595643 -3.3069447 12.31600299 -1 7 C-0.39287254 4.59867497 -0.15544768 2.48716291 0 0 Z " fill="#F2EEEA" transform="translate(324,289)"/>
<path d="M0 0 C0.20625 1.134375 0.4125 2.26875 0.625 3.4375 C2.21692248 9.73792558 5.50953746 15.04320801 10.625 19.0625 C16.89351148 20.80375319 23.23884021 20.90365229 29.4375 18.875 C36.15191662 13.96201223 38.08349383 8.88416361 40 1 C42.97 1.33 45.94 1.66 49 2 C49.63039748 7.04317984 48.37479406 9.9802885 45.609375 14.04296875 C40.03643567 20.81977119 32.78246793 24.35838369 24.1484375 25.31640625 C14.85615413 25.68857781 6.82344494 23.64657496 -0.4375 17.6875 C-4.72841297 13.56399431 -7.80411907 9.69336272 -8.25 3.5625 C-8.1675 2.716875 -8.085 1.87125 -8 1 C-5.07175348 0.02391783 -3.04386724 -0.08226668 0 0 Z " fill="#F5F1EE" transform="translate(176,289)"/>
<path d="M0 0 C1.09658936 3.28976808 0.79953138 4.71303767 0 8 C0.66 8.33 1.32 8.66 2 9 C1.91697632 9.94746094 1.91697632 9.94746094 1.83227539 10.9140625 C0.71190782 23.85949592 -0.25510934 36.77219358 -0.57006836 49.765625 C-0.772952 56.33146826 -1.66019512 62.5704945 -3 69 C-4.485 69.495 -4.485 69.495 -6 70 C-9.75471566 58.73585301 -9.20488866 44.9029458 -9.375 33.125 C-9.40086182 32.22934326 -9.42672363 31.33368652 -9.45336914 30.41088867 C-9.47084908 24.42767317 -8.3348322 20.01380083 -5 15 C-4.34 14.34 -3.68 13.68 -3 13 C-2.35431493 10.40958879 -2.35431493 10.40958879 -1.9375 7.5 C-1.09073359 2.18146718 -1.09073359 2.18146718 0 0 Z " fill="#4F4334" transform="translate(114,174)"/>
<path d="M0 0 C0.95658858 3.17711553 1.0691285 5.90053494 0.93334961 9.20825195 C0.89257797 10.24645584 0.85180634 11.28465973 0.80979919 12.35432434 C0.58942704 17.0904571 0.36715727 21.82628732 0.12329102 26.5612793 C-0.00027511 29.05614596 -0.11166412 31.55164639 -0.21069336 34.04760742 C-0.35402308 37.65469902 -0.53424305 41.25829607 -0.72265625 44.86328125 C-0.76044693 45.97391434 -0.79823761 47.08454742 -0.83717346 48.22883606 C-1.21442904 54.51871654 -2.09997813 58.30512709 -6.53709412 62.89543152 C-8 64 -8 64 -10 64 C-9.855625 62.7521875 -9.71125 61.504375 -9.5625 60.21875 C-8.7076198 51.66994803 -8.40739609 43.07918867 -8 34.5 C-7.69126616 27.9984995 -7.36582405 21.49855279 -7 15 C-6.94142822 13.89930176 -6.88285645 12.79860352 -6.82250977 11.66455078 C-6.72667603 10.33399658 -6.72667603 10.33399658 -6.62890625 8.9765625 C-6.55651733 7.90269287 -6.55651733 7.90269287 -6.48266602 6.80712891 C-5.54458951 3.29491733 -2.95388868 1.88546086 0 0 Z " fill="#332E28" transform="translate(121,178)"/>
<path d="M0 0 C3.16368097 1.28890706 5.04214901 3.03974627 7.36328125 5.5 C10.29355632 8.18550269 13.67503153 10.26779448 16.98828125 12.44921875 C17.65214844 12.96097656 18.31601563 13.47273438 19 14 C19 14.66 19 15.32 19 16 C19.6703125 16.08507812 20.340625 16.17015625 21.03125 16.2578125 C24.85240829 17.21310207 28.07848103 18.98469546 31.5 20.875 C32.47646484 21.40287109 32.47646484 21.40287109 33.47265625 21.94140625 C36.27033319 23.46175998 39.01933871 25.01192415 41.73046875 26.68359375 C44.6856205 28.39768349 47.7036973 29.15976598 51 30 C51 30.66 51 31.32 51 32 C51.99 32 52.98 32 54 32 C54 32.66 54 33.32 54 34 C54.66 34 55.32 34 56 34 C56 34.99 56 35.98 56 37 C57.32 37.33 58.64 37.66 60 38 C60 38.66 60 39.32 60 40 C53.23659374 39.55727006 47.90277065 36.90096945 41.875 33.9375 C40.84963135 33.43726318 39.8242627 32.93702637 38.76782227 32.42163086 C24.56909623 25.40937314 8.00383778 16.63176458 -1 3 C-0.67 2.01 -0.34 1.02 0 0 Z " fill="#C06341" transform="translate(159,400)"/>
<path d="M0 0 C0.99 1.485 0.99 1.485 2 3 C2.44859375 3.56847656 2.8971875 4.13695312 3.359375 4.72265625 C4 7 4 7 2.578125 10.43359375 C1.82209012 11.77966345 1.04449228 13.11376499 0.25 14.4375 C-0.37201294 15.50158081 -0.37201294 15.50158081 -1.0065918 16.5871582 C-17.25529624 43.77395545 -42.74952872 66.61278998 -73 77 C-75.84375 77.140625 -75.84375 77.140625 -78 77 C-75.80999351 73.71499027 -75.54733976 73.61867669 -72 72.6875 C-67.37530607 71.27870169 -63.72996935 69.10157889 -59.6640625 66.52734375 C-56.8624476 64.92113931 -54.08539204 63.81620258 -51.0625 62.6875 C-44.28102849 59.95932181 -39.39143778 55.85531441 -34 51 C-32.98821275 50.13007361 -31.97516308 49.26161362 -30.9609375 48.39453125 C-23.87124131 42.23250074 -18.45239095 35.67292113 -13 28 C-12.28972656 27.15695312 -11.57945312 26.31390625 -10.84765625 25.4453125 C-8.52973337 22.37761752 -7.78488165 19.5532206 -6.80859375 15.890625 C-6.54175781 15.26671875 -6.27492188 14.6428125 -6 14 C-5.01 13.67 -4.02 13.34 -3 13 C-3.226875 12.443125 -3.45375 11.88625 -3.6875 11.3125 C-4.12622926 8.06590348 -2.75020337 6.69262057 -1 4 C-0.30420546 1.80869466 -0.30420546 1.80869466 0 0 Z " fill="#C96E49" transform="translate(362,362)"/>
<path d="M0 0 C2.3515625 1.92578125 2.3515625 1.92578125 4.625 4.3125 C5.38039062 5.09238281 6.13578125 5.87226562 6.9140625 6.67578125 C12.0321458 12.37851452 12.0321458 12.37851452 11.8125 16.625 C11 20 11 20 9 22 C6.16796875 22.45703125 6.16796875 22.45703125 3 22 C0.55078125 19.69921875 0.55078125 19.69921875 -1.6875 16.6875 C-4.52284226 12.83984962 -4.52284226 12.83984962 -7.7421875 9.33203125 C-9 8 -9 8 -9.4375 5 C-9 2 -9 2 -7.3125 0.0625 C-4.31267106 -1.31579978 -3.12761263 -0.98863974 0 0 Z " fill="#1D1B17" transform="translate(242,119)"/>
<path d="M0 0 C3.6150526 2.37832408 5.76719057 4.37476047 6.74414062 8.68847656 C7.35800392 14.23433316 6.99152809 19.81401338 6.75 25.375 C6.69847781 26.72216143 6.64712763 28.06932945 6.59594727 29.41650391 C6.20500363 39.01651148 5.43502983 48.49815197 4 58 C3.01 57.34 2.02 56.68 1 56 C0.67529297 53.71606445 0.67529297 53.71606445 0.7421875 50.86328125 C0.75701172 49.81841553 0.77183594 48.7735498 0.78710938 47.69702148 C0.81611328 46.58012939 0.84511719 45.4632373 0.875 44.3125 C0.90747993 42.01828024 0.9361429 39.72400319 0.9609375 37.4296875 C0.97350586 36.31819336 0.98607422 35.20669922 0.99902344 34.06152344 C1.00057857 29.1861826 0.61733824 24.38191723 0.22265625 19.5234375 C-0.18821754 13.02154002 -0.07701074 6.51168607 0 0 Z " fill="#55493B" transform="translate(389,187)"/>
<path d="M0 0 C1.9375 1.1875 1.9375 1.1875 3 3 C2.94898858 5.66650589 2.5108734 7.39401882 0.77514648 9.45288086 C-0.84458911 11.00537343 -2.52126419 12.44510474 -4.25 13.875 C-4.82363281 14.38546875 -5.39726562 14.8959375 -5.98828125 15.421875 C-10.25105336 19.01464421 -10.25105336 19.01464421 -13.796875 18.9453125 C-16 18 -16 18 -18 16 C-18.4765625 13.2109375 -18.4765625 13.2109375 -18 10 C-16.13845379 7.8613304 -14.56569475 6.33923159 -12.375 4.625 C-11.59189453 3.95017578 -11.59189453 3.95017578 -10.79296875 3.26171875 C-7.13945901 0.2938059 -4.66792949 -0.62283708 0 0 Z " fill="#1C1A17" transform="translate(265,105)"/>
<path d="M0 0 C0.33 0.66 0.66 1.32 1 2 C3.45516759 2.85416577 5.94086878 3.47068248 8.45703125 4.12109375 C11 5 11 5 12.94921875 6.47265625 C17.71226508 10.01999171 23.1184801 10.35725489 28.875 10.625 C29.90753906 10.68300781 29.90753906 10.68300781 30.9609375 10.7421875 C32.64023246 10.83548166 34.32007767 10.91878238 36 11 C36 10.34 36 9.68 36 9 C39.43368594 7.49115787 42.87253549 5.99446599 46.3125 4.5 C47.77719727 3.85611328 47.77719727 3.85611328 49.27148438 3.19921875 C50.20927734 2.79316406 51.14707031 2.38710938 52.11328125 1.96875 C52.97735596 1.59169922 53.84143066 1.21464844 54.73168945 0.82617188 C57 0 57 0 60 0 C60.495 2.475 60.495 2.475 61 5 C36.10254181 15.64082238 36.10254181 15.64082238 23 13 C22.05511719 12.81179688 21.11023438 12.62359375 20.13671875 12.4296875 C12.72930159 10.75797468 5.91748371 8.10305564 -1 5 C-0.67 3.35 -0.34 1.7 0 0 Z " fill="#231E19" transform="translate(220,436)"/>
<path d="M0 0 C4.3838209 2.89410931 8.28956222 6.28956222 12 10 C11.875 12.5 11.875 12.5 11 15 C8.76514621 16.75595655 7.54573541 17.04578944 4.71875 16.80859375 C1.20370852 15.76317193 -0.92872705 14.01695645 -3.75 11.6875 C-4.71421875 10.90761719 -5.6784375 10.12773438 -6.671875 9.32421875 C-8.92017799 7.07968809 -9.81182306 6.12508135 -10 3 C-7.67197275 -1.07404769 -4.23275646 -0.73905272 0 0 Z " fill="#1D1B18" transform="translate(242,94)"/>
<path d="M0 0 C3.51034581 0.17491414 4.80701665 0.81182521 7.3515625 3.29296875 C8.47691406 4.72576172 8.47691406 4.72576172 9.625 6.1875 C10.38039063 7.12980469 11.13578125 8.07210937 11.9140625 9.04296875 C15.46406223 14.07545901 17.44505249 17.76926514 17 24 C15.68 24.33 14.36 24.66 13 25 C11.66629451 23.33363113 10.33305637 21.6668882 9 20 C8.23300781 19.05382812 7.46601563 18.10765625 6.67578125 17.1328125 C5.89589844 16.14023438 5.11601562 15.14765625 4.3125 14.125 C3.52488281 13.13757813 2.73726563 12.15015625 1.92578125 11.1328125 C-0.2262684 7.63191225 -0.78457082 5.07812453 -1 1 C-0.67 0.67 -0.34 0.34 0 0 Z " fill="#1D1A17" transform="translate(333,126)"/>
<path d="M0 0 C0 0.33 0 0.66 0 1 C-1.98 1 -3.96 1 -6 1 C-6 1.66 -6 2.32 -6 3 C-9.63 3.66 -13.26 4.32 -17 5 C-17.66 4.01 -18.32 3.02 -19 2 C-22.3346317 2.3211633 -25.66766995 2.65577078 -29 3 C-29.70253906 3.0721875 -30.40507812 3.144375 -31.12890625 3.21875 C-38.8140469 4.08818005 -45.3494344 5.45223931 -52.1640625 9.12890625 C-54 10 -54 10 -57.0625 10.5 C-60.40798324 11.06944396 -62.40498217 12.32689327 -65.25390625 14.078125 C-67.74944202 15.39567856 -70.21626576 15.72841617 -73 16 C-63.96554095 5.88723454 -43.20633056 1.88495088 -30.3046875 -0.40625 C-27.52580761 -0.90552866 -24.85233228 -1.53277767 -22.125 -2.25 C-14.69448624 -3.91977837 -7.24955992 -1.76525927 0 0 Z " fill="#735936" transform="translate(266,57)"/>
<path d="M0 0 C1.9375 1.5 1.9375 1.5 3 3 C1.46788138 7.13858871 -1.16736057 8.8750575 -4.75 11.3125 C-5.77609375 12.03050781 -6.8021875 12.74851562 -7.859375 13.48828125 C-11.52103555 15.25079696 -13.16976895 15.22123309 -17 14 C-18.375 11.9375 -18.375 11.9375 -19 10 C-14.44284532 3.35414942 -8.33113535 -1.30684476 0 0 Z " fill="#1F1D19" transform="translate(265,83)"/>
<path d="M0 0 C9.84069131 1.28419579 18.30240731 7.02975649 26.6875 12.0625 C27.39503418 12.47363037 28.10256836 12.88476074 28.83154297 13.30834961 C33.73933982 16.32987365 33.73933982 16.32987365 35.01953125 19.62109375 C35 22 35 22 34 25 C31.03 23.35 28.06 21.7 25 20 C25 18.02 25 16.04 25 14 C24.01644531 13.91234375 23.03289062 13.8246875 22.01953125 13.734375 C17.48947539 13.08184618 13.74495181 11.29564762 9.6875 9.25 C8.97271484 8.91484375 8.25792969 8.5796875 7.52148438 8.234375 C2.35510231 5.66335735 2.35510231 5.66335735 0.51953125 2.234375 C0.34808594 1.49703125 0.17664063 0.7596875 0 0 Z " fill="#463F36" transform="translate(290,65)"/>
<path d="M0 0 C0.71027344 0.10570313 1.42054688 0.21140625 2.15234375 0.3203125 C1.62369011 4.19487528 0.73796816 6.26752982 -1.91015625 9.1328125 C-2.53535156 9.80957031 -3.16054687 10.48632812 -3.8046875 11.18359375 C-4.47886719 11.88871094 -5.15304688 12.59382813 -5.84765625 13.3203125 C-6.55277344 14.07699219 -7.25789062 14.83367187 -7.984375 15.61328125 C-12.01324296 19.82087903 -12.01324296 19.82087903 -13.84765625 21.3203125 C-14.83765625 21.3203125 -15.82765625 21.3203125 -16.84765625 21.3203125 C-17.59765625 19.6953125 -17.59765625 19.6953125 -17.84765625 17.3203125 C-15.21316375 12.86482875 -12.03318327 9.1131913 -8.41015625 5.4453125 C-7.94544922 4.94773437 -7.48074219 4.45015625 -7.00195312 3.9375 C-4.67175127 1.57154888 -3.35404624 0.37727269 0 0 Z " fill="#221F1C" transform="translate(170.84765625,112.6796875)"/>
<path d="M0 0 C5.27152073 1.64002867 10.03748532 3.77172317 13.8125 7.875 C13.1875 9.8125 13.1875 9.8125 11.8125 11.875 C7.92653409 13.10936564 6.18268875 13.02973721 2.3828125 11.44140625 C1.24585938 10.78011719 0.10890625 10.11882812 -1.0625 9.4375 C-1.65546875 9.09912109 -2.2484375 8.76074219 -2.859375 8.41210938 C-4.31062602 7.58115113 -5.75031734 6.73005971 -7.1875 5.875 C-5.67084416 2.37502498 -4.26744587 -0.24385405 0 0 Z " fill="#23211D" transform="translate(240.1875,74.125)"/>
<path d="M0 0 C3.28231328 5.16999559 4.44066484 8.91814201 3.65234375 15.01953125 C2.88644967 17.34473065 1.83822992 18.42081603 0 20 C-3 19 -3 19 -4.203125 17.14453125 C-7.85993547 8.99857658 -7.85993547 8.99857658 -6 4 C-2.73684211 0 -2.73684211 0 0 0 Z " fill="#23201C" transform="translate(151,132)"/>
<path d="M0 0 C2.13223566 2.69876616 3.76574737 5.33046019 5.2265625 8.44140625 C5.6184375 9.27220703 6.0103125 10.10300781 6.4140625 10.95898438 C6.81367188 11.81814453 7.21328125 12.67730469 7.625 13.5625 C8.03234375 14.42552734 8.4396875 15.28855469 8.859375 16.17773438 C11.97936507 22.82579268 13.70292354 27.79836579 12.6875 35.3125 C12 37 12 37 9 39 C8.01 38.67 7.02 38.34 6 38 C6.99 37.505 6.99 37.505 8 37 C8.36788651 28.1843492 8.11155521 20.81485672 3.8984375 12.94140625 C3 11 3 11 3 8 C2.34 8 1.68 8 1 8 C0.67 5.36 0.34 2.72 0 0 Z " fill="#BC6245" transform="translate(261,312)"/>
<path d="M0 0 C0.66 0.33 1.32 0.66 2 1 C-2.6007446 5.23385906 -7.05487035 7.58246078 -12.8125 9.9375 C-18.67000747 12.42095131 -23.88585219 15.0033454 -29.05078125 18.7578125 C-31.8593507 20.54764233 -34.80339715 21.40898988 -37.98046875 22.34375 C-40.57771369 23.18772901 -42.74632301 24.47331559 -45 26 C-44.80859375 24.140625 -44.80859375 24.140625 -44 22 C-41.78515625 20.734375 -41.78515625 20.734375 -39.0625 19.75 C-38.16660156 19.41484375 -37.27070313 19.0796875 -36.34765625 18.734375 C-34 18 -34 18 -32 18 C-32 17.34 -32 16.68 -32 16 C-24.41581403 12.02828156 -16.62201385 8.55372615 -8.78222656 5.12329102 C-7.9362793 4.74873779 -7.09033203 4.37418457 -6.21875 3.98828125 C-5.45498047 3.65352783 -4.69121094 3.31877441 -3.90429688 2.97387695 C-1.8323647 2.03742779 -1.8323647 2.03742779 0 0 Z " fill="#A84F32" transform="translate(325,412)"/>
<path d="M0 0 C0 0.33 0 0.66 0 1 C-1.98 1 -3.96 1 -6 1 C-6 1.66 -6 2.32 -6 3 C-9.63 3.66 -13.26 4.32 -17 5 C-17.66 4.01 -18.32 3.02 -19 2 C-19.99 1.34 -20.98 0.68 -22 0 C-16.6358668 -5.83057957 -6.7138043 -1.63480341 0 0 Z " fill="#584C3D" transform="translate(266,57)"/>
<path d="M0 0 C0.33 0.66 0.66 1.32 1 2 C2.98 1.67 4.96 1.34 7 1 C5.62224508 4.35938442 4.36793478 5.69945373 1.15625 7.359375 C0.40472656 7.75253906 -0.34679687 8.14570312 -1.12109375 8.55078125 C-1.90613281 8.94652344 -2.69117188 9.34226562 -3.5 9.75 C-4.28503906 10.16121094 -5.07007813 10.57242188 -5.87890625 10.99609375 C-11.69710341 14 -11.69710341 14 -14 14 C-12.4169423 9.7257442 -9.49431596 7.73468206 -6 5 C-5.67 5.33 -5.34 5.66 -5 6 C-3.35 4.02 -1.7 2.04 0 0 Z " fill="#3F3A33" transform="translate(193,73)"/>
<path d="M0 0 C0.33 0.66 0.66 1.32 1 2 C3.45516759 2.85416577 5.94086878 3.47068248 8.45703125 4.12109375 C11.1367166 5.04725228 12.7633605 6.29250583 15 8 C17.27554216 8.90953097 17.27554216 8.90953097 19.625 9.5625 C22.56473413 10.42684043 23.79360635 10.79360635 26 13 C16.22086681 11.94378077 7.93284093 8.88066041 -1 5 C-0.67 3.35 -0.34 1.7 0 0 Z " fill="#3A322C" transform="translate(220,436)"/>
<path d="M0 0 C3.82352106 1.5577308 6.29205593 3.91595258 9 7 C9 7.99 9 8.98 9 10 C10.32 10.66 11.64 11.32 13 12 C13 12.66 13 13.32 13 14 C13.99 14.33 14.98 14.66 16 15 C15.67 15.66 15.34 16.32 15 17 C11.13447144 15.37482529 8.3970187 12.86698229 5.3125 10.0625 C4.33925781 9.18722656 3.36601562 8.31195313 2.36328125 7.41015625 C0 5 0 5 -1 2 C-0.67 1.34 -0.34 0.68 0 0 Z " fill="#CA6C43" transform="translate(159,400)"/>
<path d="M0 0 C0.66 0 1.32 0 2 0 C1.41698623 4.12062276 -0.81610639 6.69749978 -3.3125 9.9375 C-4.09238281 10.95714844 -4.87226563 11.97679687 -5.67578125 13.02734375 C-6.44277344 14.00832031 -7.20976562 14.98929687 -8 16 C-8.70253906 16.91394531 -9.40507812 17.82789063 -10.12890625 18.76953125 C-12.65378191 21.77935171 -15.53396676 23.26698338 -19 25 C-17.38118643 21.33591122 -15.1279774 18.42666956 -12.625 15.3125 C-11.85414063 14.33925781 -11.08328125 13.36601562 -10.2890625 12.36328125 C-8.05911461 10.0610313 -7.12219127 9.30651649 -4 9 C-3.71125 7.88625 -3.4225 6.7725 -3.125 5.625 C-2 2 -2 2 0 0 Z " fill="#AD5437" transform="translate(352,382)"/>
<path d="M0 0 C0.66 0.33 1.32 0.66 2 1 C0.68 1.33 -0.64 1.66 -2 2 C-1.34 1.34 -0.68 0.68 0 0 Z M-4 2 C-3.34 2.33 -2.68 2.66 -2 3 C-8.49838836 7.43347991 -14.4014885 10.88238204 -22 13 C-21.67 13.66 -21.34 14.32 -21 15 C-22.65 15.33 -24.3 15.66 -26 16 C-25.9375 13.75 -25.9375 13.75 -25 11 C-20.81799883 8.1299992 -16.85016801 6.48474531 -12 5 C-10.58184865 4.44125369 -9.16523444 3.87859378 -7.75 3.3125 C-6.5125 2.879375 -5.275 2.44625 -4 2 Z " fill="#BF6445" transform="translate(307,425)"/>
<path d="M0 0 C-0.59167969 0.36351562 -1.18335938 0.72703125 -1.79296875 1.1015625 C-9.81637066 6.20617383 -15.08425178 11.82997185 -18 21 C-18.55759165 24.33161012 -18.85913903 27.62637971 -19 31 C-19.33 31 -19.66 31 -20 31 C-20.81020673 14.97591142 -20.81020673 14.97591142 -16 9 C-5.49668536 -1.83222845 -5.49668536 -1.83222845 0 0 Z " fill="#A64125" transform="translate(286,264)"/>
<path d="M0 0 C6.00411233 0.37525702 10.46114782 4.46114782 14.5546875 8.5546875 C19.27263147 13.94263535 20.25711954 18.24410484 20.125 25.3125 C20.10695312 26.56675781 20.08890625 27.82101562 20.0703125 29.11328125 C20.04710937 30.06589844 20.02390625 31.01851563 20 32 C19.67 32 19.34 32 19 32 C18.98582031 31.32195312 18.97164062 30.64390625 18.95703125 29.9453125 C18.57765694 22.54238669 16.65306247 17.38432413 13 11 C12.47792969 9.89978516 12.47792969 9.89978516 11.9453125 8.77734375 C10.67298212 6.38515233 9.48015893 6.07250116 7 5 C5.74367679 4.30294325 4.49402729 3.59377132 3.25 2.875 C2.1775 2.25625 1.105 1.6375 0 1 C0 0.67 0 0.34 0 0 Z " fill="#A74124" transform="translate(214,263)"/>
<path d="M0 0 C6.57379284 0.93711515 11.87358545 2.69463007 17.7265625 5.82421875 C20.40021093 7.20698194 23.11153746 8.16386611 26 9 C26 9.66 26 10.32 26 11 C19.6297564 10.52460869 14.74264771 8.25813609 9.0625 5.4375 C8.18787109 5.01275391 7.31324219 4.58800781 6.41210938 4.15039062 C4.27038507 3.108787 2.13338147 2.0585578 0 1 C0 0.67 0 0.34 0 0 Z " fill="#CE714A" transform="translate(193,429)"/>
<path d="M0 0 C3.50579168 1.3248268 6.67481077 2.91505945 9.9375 4.75 C13.79989791 6.71382378 13.79989791 6.71382378 18.0625 6.625 C19.8105738 5.65798045 21.55537299 4.68494173 23.29296875 3.69921875 C24.10378906 3.24160156 24.91460937 2.78398437 25.75 2.3125 C26.50796875 1.85488281 27.2659375 1.39726562 28.046875 0.92578125 C28.69140625 0.62027344 29.3359375 0.31476563 30 0 C30.66 0.33 31.32 0.66 32 1 C29.78196993 2.53971505 27.55301275 4.05614128 25.3125 5.5625 C24.68666016 6.00013672 24.06082031 6.43777344 23.41601562 6.88867188 C18.74894159 9.99190958 18.74894159 9.99190958 15.46875 10.02734375 C12.17351112 8.65606555 9.18757207 6.91308944 6.1875 5 C5.59001953 4.63132812 4.99253906 4.26265625 4.37695312 3.8828125 C2.89634966 2.9555317 1.4450798 1.98172332 0 1 C0 0.67 0 0.34 0 0 Z " fill="#332B27" transform="translate(234,419)"/>
<path d="M0 0 C3.40755272 1.92880342 6.74147635 3.8276509 10 6 C10 6.66 10 7.32 10 8 C11.051875 8.1546875 11.051875 8.1546875 12.125 8.3125 C15.39137647 9.09359003 18.0471852 10.42058743 21 12 C19.0625 12.5625 19.0625 12.5625 17 13 C16.67 12.67 16.34 12.34 16 12 C13.32941149 11.85884839 10.67567762 11.95752893 8 12 C7.7525 11.443125 7.505 10.88625 7.25 10.3125 C5.43760226 6.95956419 3.46885508 3.73442754 0 2 C0 1.34 0 0.68 0 0 Z " fill="#BA5C3C" transform="translate(168,408)"/>
<path d="M0 0 C0.66 0.33 1.32 0.66 2 1 C-4.93 7.93 -11.86 14.86 -19 22 C-19 17.03345155 -15.35300162 14.42528855 -12 11 C-8.07984676 7.24598719 -4.04755235 3.61554758 0 0 Z " fill="#483217" transform="translate(198,452)"/>
<path d="M0 0 C0.66 0.33 1.32 0.66 2 1 C0.35 2.98 -1.3 4.96 -3 7 C-3.66 6.67 -4.32 6.34 -5 6 C-5.78375 6.78375 -6.5675 7.5675 -7.375 8.375 C-11.33129261 12.33129261 -13.522431 13.57988952 -19 15 C-13.59766883 9.24913133 -7.13645166 3.46009778 0 0 Z " fill="#66533A" transform="translate(191,73)"/>
<path d="M0 0 C2.71227806 0.90610626 5.41937819 1.82439254 8.125 2.75 C8.88554687 3.00265625 9.64609375 3.2553125 10.4296875 3.515625 C15.15853219 5.1462611 18.96587629 7.03562794 23 10 C19.51557146 11.16147618 19.15452797 10.89427634 16 9.375 C14.82630859 8.82199219 14.82630859 8.82199219 13.62890625 8.2578125 C12.76136719 7.84273438 11.89382812 7.42765625 11 7 C8.98068132 6.08000153 6.95984864 5.16331874 4.9375 4.25 C3.29149416 3.50037868 1.64559818 2.75051581 0 2 C0 1.34 0 0.68 0 0 Z " fill="#1F1A16" transform="translate(221,436)"/>
<path d="M0 0 C1.53266582 3.06533164 1.10276471 6.26754272 1.0625 9.625 C1.05798828 10.33140625 1.05347656 11.0378125 1.04882812 11.765625 C1.03703875 13.51045275 1.01910324 15.255237 1 17 C-0.9375 16.1953125 -0.9375 16.1953125 -3 15 C-4.45026923 10.46790866 -4.13441657 7.71370652 -2.0625 3.5625 C-1.39226744 2.36516929 -0.7104474 1.17391524 0 0 Z " fill="#B6593B" transform="translate(232,334)"/>
<path d="M0 0 C4.40989783 5.21169743 5.37378137 10.27193535 5 17 C4.5 19.4375 4.5 19.4375 4 21 C3.34 21 2.68 21 2 21 C1.90912109 19.35451172 1.90912109 19.35451172 1.81640625 17.67578125 C1.73195502 16.22134346 1.64730934 14.76691695 1.5625 13.3125 C1.52318359 12.59126953 1.48386719 11.87003906 1.44335938 11.12695312 C1.21814322 7.33292718 0.87160695 3.71348508 0 0 Z " fill="#C1694C" transform="translate(269,328)"/>
<path d="M0 0 C0 0.99 0 1.98 0 3 C-2.41151557 4.03479213 -4.82794469 5.0529372 -7.25 6.0625 C-8.27287109 6.50432617 -8.27287109 6.50432617 -9.31640625 6.95507812 C-13.01989395 8.48321625 -15.1840347 9.24129373 -19 8 C-18.18015625 7.67386719 -17.3603125 7.34773438 -16.515625 7.01171875 C-15.43796875 6.57472656 -14.3603125 6.13773437 -13.25 5.6875 C-12.18265625 5.25824219 -11.1153125 4.82898438 -10.015625 4.38671875 C-7.02262049 3.14150354 -7.02262049 3.14150354 -4.796875 1.33203125 C-3 0 -3 0 0 0 Z " fill="#403832" transform="translate(281,438)"/>
<path d="M0 0 C0.66 0 1.32 0 2 0 C4.35582065 4.62816733 4.23521469 8.75534135 4.125 13.8125 C4.11597656 14.60076172 4.10695313 15.38902344 4.09765625 16.20117188 C4.07422504 18.13424666 4.03835838 20.0671638 4 22 C2.68 22.33 1.36 22.66 0 23 C0.66 22.34 1.32 21.68 2 21 C2.32111786 18.07747924 2.32111786 18.07747924 2.25 14.75 C2.25515625 13.63109375 2.2603125 12.5121875 2.265625 11.359375 C1.99472337 7.93326618 1.17080931 5.21507952 0 2 C0 1.34 0 0.68 0 0 Z " fill="#B55C40" transform="translate(267,328)"/>
<path d="M0 0 C5.34844008 0.53484401 9.35796103 2.46690767 14 5 C10.6484259 6.13508688 8.64324324 5.87309359 5.3125 4.75 C4.52488281 4.49734375 3.73726563 4.2446875 2.92578125 3.984375 C1 3 1 3 0 0 Z " fill="#60503A" transform="translate(290,65)"/>
<path d="M0 0 C-2.64711809 1.76474539 -4.40356298 2.53998404 -7.375 3.4375 C-10.91365185 4.56894496 -13.90327634 5.90221945 -17 8 C-16.86328125 6.17578125 -16.86328125 6.17578125 -16 4 C-13.41796875 2.48046875 -13.41796875 2.48046875 -10.1875 1.1875 C-9.12917969 0.74792969 -8.07085937 0.30835938 -6.98046875 -0.14453125 C-4.03650458 -0.98952228 -2.79474298 -1.10300994 0 0 Z " fill="#B3583A" transform="translate(297,430)"/>
<path d="M0 0 C-2.26274865 2.26274865 -4.02857095 2.92661942 -7 4.0625 C-10.54955475 5.41920836 -10.54955475 5.41920836 -14 7 C-14 5.68 -14 4.36 -14 3 C-9.07015675 0.96006486 -5.42039575 -0.40652968 0 0 Z " fill="#A64D30" transform="translate(293,429)"/>
<path d="M0 0 C0.66 0.33 1.32 0.66 2 1 C-3.20770173 5.21048225 -7.39070617 6.99586692 -14 8 C-11.52010087 5.14181117 -8.86353122 3.80106607 -5.4375 2.25 C-4.46683594 1.80140625 -3.49617187 1.3528125 -2.49609375 0.890625 C-1.67238281 0.59671875 -0.84867188 0.3028125 0 0 Z " fill="#7A5B30" transform="translate(207,65)"/>
<path d="M0 0 C0.33 0 0.66 0 1 0 C1.144375 1.134375 1.28875 2.26875 1.4375 3.4375 C1.61171478 6.80777201 1.61171478 6.80777201 3 8 C3.14115161 10.67058851 3.04247107 13.32432238 3 16 C2.01 15.34 1.02 14.68 0 14 C-0.29296875 10.7421875 -0.29296875 10.7421875 -0.1875 6.875 C-0.16042969 5.59367188 -0.13335937 4.31234375 -0.10546875 2.9921875 C-0.07066406 2.00476563 -0.03585937 1.01734375 0 0 Z " fill="#484036" transform="translate(390,229)"/>
<path d="M0 0 C3.69876091 1.37287342 6.9514476 3.06355453 10.3125 5.125 C11.19550781 5.66382812 12.07851563 6.20265625 12.98828125 6.7578125 C13.65214844 7.16773437 14.31601562 7.57765625 15 8 C14.01 8.495 14.01 8.495 13 9 C10.20456073 7.93859701 7.62120634 6.43339391 5 5 C4.01 4.46375 3.02 3.9275 2 3.375 C1.34 2.92125 0.68 2.4675 0 2 C0 1.34 0 0.68 0 0 Z " fill="#61513C" transform="translate(304,71)"/>
<path d="M0 0 C1.09658936 3.28976808 0.79953138 4.71303767 0 8 C0.66 8.33 1.32 8.66 2 9 C1.01 9.495 1.01 9.495 0 10 C-0.72159424 11.64363134 -1.39351421 13.31050386 -2 15 C-2.99 15 -3.98 15 -5 15 C-4.34 14.34 -3.68 13.68 -3 13 C-2.35431493 10.40958879 -2.35431493 10.40958879 -1.9375 7.5 C-1.09073359 2.18146718 -1.09073359 2.18146718 0 0 Z " fill="#87612C" transform="translate(114,174)"/>
<path d="M0 0 C0.66 0 1.32 0 2 0 C1.38801624 3.43950364 0.07941153 5.51564485 -2.0625 8.25 C-2.61035156 8.95640625 -3.15820312 9.6628125 -3.72265625 10.390625 C-4.14417969 10.92171875 -4.56570313 11.4528125 -5 12 C-5 7.35868331 -3.28670403 3.28670403 0 0 Z " fill="#B25A3D" transform="translate(352,382)"/>
<path d="M0 0 C0.66 0.33 1.32 0.66 2 1 C1.29630087 5.74996912 -1.70531276 8.70531276 -5 12 C-4.42365861 7.24518354 -2.44931479 4.02951788 0 0 Z " fill="#735935" transform="translate(129,136)"/>
<path d="M0 0 C2 3 2 3 3 6 C1.625 7.5 1.625 7.5 0 9 C-0.66 9 -1.32 9 -2 9 C-2 9.66 -2 10.32 -2 11 C-2.66 11 -3.32 11 -4 11 C-3.71125 10.484375 -3.4225 9.96875 -3.125 9.4375 C-1.71219973 6.37643275 -0.8751483 3.25055082 0 0 Z " fill="#BE6547" transform="translate(362,362)"/>
<path d="M0 0 C-2.31 1.65 -4.62 3.3 -7 5 C-7.66 4.67 -8.32 4.34 -9 4 C-8.01 3.67 -7.02 3.34 -6 3 C-6 2.01 -6 1.02 -6 0 C-4 -1 -4 -1 0 0 Z M-11 5 C-9 6 -9 6 -9 6 Z " fill="#BF6444" transform="translate(322,419)"/>
<path d="M0 0 C0 4.54960762 -2.12127294 7.07105996 -5.1875 10.3125 C-6.0846875 11.1478125 -6.0846875 11.1478125 -7 12 C-5.44298069 7.32894208 -2.91552627 3.91294315 0 0 Z " fill="#735935" transform="translate(138,122)"/>
<path d="M0 0 C-0.66 0 -1.32 0 -2 0 C-2 0.66 -2 1.32 -2 2 C-6.455 2.495 -6.455 2.495 -11 3 C-4.23255814 -1.51162791 -4.23255814 -1.51162791 0 0 Z " fill="#332C26" transform="translate(264,446)"/>
<path d="M0 0 C-2.62198774 2.15377564 -4.64404172 3.40072174 -8 4 C-8 3.01 -8 2.02 -8 1 C-5.07175348 0.02391783 -3.04386724 -0.08226668 0 0 Z " fill="#614F35" transform="translate(218,63)"/>
<path d="M0 0 C0.66 0.33 1.32 0.66 2 1 C0.35 2.98 -1.3 4.96 -3 7 C-3.33 6.34 -3.66 5.68 -4 5 C-4.66 4.67 -5.32 4.34 -6 4 C-4.02 2.68 -2.04 1.36 0 0 Z " fill="#634E32" transform="translate(191,73)"/>
</svg>
